<svg id="Layer_1" data-name="Layer 1" xmlns="http://www.w3.org/2000/svg" viewBox="0 0 365 476"><defs><style>.cls-1,.cls-2{fill:#fff;}.cls-1{stroke:#231f20;stroke-miterlimit:10;stroke-width:15px;}.cls-3{fill:#231f20;}</style></defs><circle class="cls-1" cx="182" cy="104" r="96.5"/><path class="cls-1" d="M249.5,221.5h-134a296.92,296.92,0,0,1-14,76,298.32,298.32,0,0,1-51,94.5h266a267.32,267.32,0,0,1-67-170.5Z"/><path class="cls-1" d="M326.5,380.2h0a38.7,38.7,0,0,0-38.7-38.7H78.2a38.7,38.7,0,0,0-38.7,38.7h0a1.07,1.07,0,0,1-.88,1.05A38.71,38.71,0,0,0,7.5,419.2v10.6a38.7,38.7,0,0,0,38.7,38.7H318.8a38.7,38.7,0,0,0,38.7-38.7V419.2a38.72,38.72,0,0,0-29.95-37.71A1.33,1.33,0,0,1,326.5,380.2Z"/><path class="cls-1" d="M249.75,171.5H111.53a26,26,0,0,0-25.16,19.37l-4.22,15.94a26,26,0,0,0,25.16,32.69H254.2a26,26,0,0,0,25.07-33l-4.45-15.95A26,26,0,0,0,249.75,171.5Z"/><path class="cls-2" d="M191.5,34.5c6.54,1.52,18.6,3.73,29,11,14.31,10,19.69,23.42,23,30"/><rect class="cls-3" x="72" y="375" width="222.5" height="15" rx="7.5"/><path class="cls-3" d="M244,80a7.49,7.49,0,0,1-9.25-4.54c-2.13-5.81-6.23-14.22-13.72-20.84-5.72-5-14-8-19.77-9.68A7.49,7.49,0,0,1,196,36.17h0a7.5,7.5,0,0,1,9.37-5.66c7.16,2,17.83,6,25.63,12.87,9.93,8.76,15.25,19.7,17.9,26.86A7.5,7.5,0,0,1,244.05,80Z"/></svg>