<svg id="Layer_1" data-name="Layer 1" xmlns="http://www.w3.org/2000/svg" viewBox="0 0 403.5 464.5"><defs><style>.cls-1{fill:#231f20;stroke:#fff;stroke-miterlimit:10;stroke-width:15px;}.cls-2{fill:#fff;}</style></defs><rect class="cls-1" x="77" y="135" width="250" height="263"/><path class="cls-1" d="M361.59,366v-1.11c0-22.3-19.23-40.38-43-40.38H86c-23.73,0-43,18.08-43,40.38v.92C22.84,369.12,7.5,385.65,7.5,405.56v11.06c0,22.3,19.23,40.38,43,40.38H353c23.73,0,43-18.08,43-40.38V405.56C396,386,381.22,369.72,361.59,366Z"/><rect class="cls-2" x="92.5" y="361.5" width="222.5" height="15" rx="7.5"/><path class="cls-1" d="M380.8,184.3l-4.31-17.24a28,28,0,0,0-10.86-16.23A56.83,56.83,0,0,0,380,113h0V46.35a37,37,0,0,0-37-37h-6.84a37,37,0,0,0-37,37V74.76A17.24,17.24,0,0,1,281.92,92H260.69a17.24,17.24,0,0,1-17.24-17.24V44.5a37,37,0,0,0-37-37H199.6a37,37,0,0,0-37,37V74.76A17.24,17.24,0,0,1,145.36,92H122a17.24,17.24,0,0,1-17.24-17.24V44.5a37,37,0,0,0-37-37H60.87a37,37,0,0,0-37,37v66.65H24V113a56.82,56.82,0,0,0,14,37.42,27.88,27.88,0,0,0-11.58,17l-4.09,17.24C18.12,202.52,30.18,220,46.72,220h309.8C373.21,220,385.29,202.23,380.8,184.3Z"/><rect class="cls-2" x="86" y="142.5" width="105.95" height="15" rx="7.5"/><rect class="cls-2" x="264.71" y="142.5" width="47.37" height="15" rx="7.5"/></svg>